# xmcd CD database file
#
# Track frame offsets:
#	187
#	47117
#	65494
#	81344
#	116342
#	148884
#
# Disc length: 2309 seconds
#
# Revision: 0
# Processed by: cddbd v1.5.2PL0 Copyright (c) Steve Scherf et al.
# Submitted via: CDex 1.70beta3
#
DISCID=54090306
DTITLE=Willis Jackson - Cool Gator
DYEAR=1960
DGENRE=Jazz
TTITLE0=Keep On A' Blowin'
TTITLE1=How Deep Is The Ocean
TTITLE2=On The Sunny Side Of The Street
TTITLE3=Blue Strollin'
TTITLE4=The Man I Love
TTITLE5=A Smooth One
EXTD=YEAR: 1960
EXTT0=
EXTT1=
EXTT2=
EXTT3=
EXTT4=
EXTT5=
PLAYORDER=
